<svg width="138" height="138" viewBox="0 0 138 138" fill="none" xmlns="http://www.w3.org/2000/svg">
<path d="M90.0047 111.636C83.3232 118.197 76.268 125.039 69 132.25C32.0275 95.5592 0 68.1547 0 41.354C0 18.3252 17.8135 5.75 36.1157 5.75C48.7485 5.75 61.6113 11.7415 69 24.426C76.3542 11.8048 89.2458 5.8075 101.924 5.8075C120.192 5.8075 138 18.2907 138 41.354C138 48.6507 135.562 55.9935 131.365 63.5548L122.837 55.0218C125.155 50.2148 126.5 45.6435 126.5 41.354C126.5 24.8342 113.758 17.3075 101.924 17.3075C83.1967 17.3075 73.3125 37.2888 69 46.1782C64.7048 37.3233 54.717 17.2557 36.11 17.25C22.7988 17.2443 11.5 25.967 11.5 41.354C11.5 61.1455 38.7665 86.4915 69 116.104L81.8743 103.506L90.0047 111.636ZM132.25 80.5H115V63.25H103.5V80.5H86.25V92H103.5V109.25H115V92H132.25V80.5Z" fill="#DA4453"/>
</svg>
